<?xml version="1.0" standalone="no"?>
<!DOCTYPE svg PUBLIC "-//W3C//DTD SVG 20010904//EN"
 "http://www.w3.org/TR/2001/REC-SVG-20010904/DTD/svg10.dtd">
<svg version="1.0" xmlns="http://www.w3.org/2000/svg"
 width="500.000000pt" height="500.000000pt" viewBox="0 0 500.000000 500.000000"
 preserveAspectRatio="xMidYMid meet">

<g transform="translate(0.000000,500.000000) scale(0.100000,-0.100000)"
fill="#000000" stroke="none">
<path d="M2359 4453 c-269 -22 -498 -85 -728 -199 -545 -271 -930 -771 -1051
-1364 -12 -58 -28 -170 -35 -250 -12 -126 -12 -165 1 -295 40 -401 159 -719
381 -1017 475 -639 1280 -924 2058 -731 262 65 535 201 749 373 155 125 334
328 435 493 265 433 354 946 251 1442 -140 673 -638 1232 -1293 1450 -188 63
-320 87 -592 108 -16 1 -96 -3 -176 -10z m332 -44 c451 -46 864 -244 1180
-566 82 -84 249 -289 249 -307 0 -3 11 -21 24 -41 33 -47 129 -245 160 -329
39 -102 93 -330 106 -446 16 -131 8 -445 -14 -551 -42 -209 -92 -358 -176
-524 -110 -219 -207 -351 -382 -520 -175 -169 -272 -239 -483 -345 -271 -137
-537 -200 -850 -200 -232 0 -428 33 -645 107 -82 28 -272 117 -335 157 -22 14
-47 29 -55 33 -8 4 -19 11 -25 15 -5 4 -48 36 -95 70 -122 90 -276 243 -374
372 -367 485 -480 1064 -328 1676 35 139 135 362 229 512 313 497 845 828
1428 887 119 12 270 12 386 0z"/>
<path d="M2081 4068 c0 -15 348 -312 355 -305 6 6 -335 317 -347 317 -5 0 -9
-6 -8 -12z"/>
<path d="M2765 3987 c-55 -51 -134 -122 -175 -159 -41 -37 -70 -68 -65 -68 15
0 359 293 358 305 -3 22 -23 9 -118 -78z"/>
<path d="M3039 4044 c29 -37 28 -114 -3 -179 -18 -39 -128 -229 -141 -243 -1
-1 -15 3 -31 9 -16 6 -67 19 -114 29 -84 17 -85 17 -88 49 l-3 31 -180 0 c-98
0 -179 -3 -179 -7 0 -5 79 -7 175 -5 117 2 175 -1 175 -8 0 -6 -58 -10 -170
-10 -156 0 -170 -1 -170 -18 0 -14 -20 -22 -96 -40 -53 -13 -97 -22 -99 -20
-18 22 -91 148 -112 194 -36 79 -38 158 -4 185 13 11 22 22 19 25 -3 2 -68
-35 -144 -83 -164 -103 -149 -92 -142 -99 3 -3 15 0 26 7 46 29 152 -44 221
-152 l29 -46 -40 -24 c-41 -25 -68 -64 -68 -96 0 -10 -13 -27 -30 -36 -16 -10
-51 -34 -76 -54 -34 -25 -45 -30 -40 -17 4 11 10 31 13 46 3 15 14 35 24 44
28 25 25 62 -6 70 -38 9 -57 -12 -50 -55 7 -42 -17 -108 -42 -118 -12 -5 -34
12 -76 58 -104 112 -141 201 -117 275 16 47 2 64 -36 43 -73 -39 -270 -277
-325 -394 -47 -97 -37 -114 41 -74 53 28 135 22 214 -14 57 -26 78 -45 30 -27
-86 33 -202 -10 -262 -95 -34 -49 -34 -51 -29 -130 3 -44 8 -88 12 -97 4 -10
49 -47 101 -84 52 -37 97 -70 99 -74 3 -4 -2 -42 -10 -85 -8 -42 -15 -79 -15
-82 0 -3 -62 -3 -139 1 -157 8 -188 1 -234 -53 -50 -60 -48 -147 6 -205 40
-42 46 -43 228 -51 l146 -7 10 -61 c6 -34 8 -64 6 -67 -3 -3 -58 -8 -123 -11
-129 -7 -164 -19 -204 -72 -31 -42 -35 -173 -7 -243 11 -29 18 -54 15 -57 -3
-3 4 -16 16 -28 11 -13 39 -46 62 -72 49 -57 103 -87 153 -87 65 0 113 38 178
140 34 54 64 87 71 79 26 -27 84 -114 80 -121 -3 -4 -2 -13 1 -19 8 -12 7
-314 -2 -346 -5 -23 -5 -23 121 -23 l126 0 0 -95 c0 -57 4 -95 10 -95 6 0 10
39 10 96 l0 95 122 -2 c114 -1 150 6 119 26 -18 11 -12 23 9 18 13 -4 21 -17
25 -42 12 -76 38 -144 78 -203 34 -49 57 -69 121 -107 l80 -46 110 0 c109 0
112 1 176 37 92 52 154 122 186 210 21 58 27 88 26 120 -1 18 6 31 18 38 22
12 39 -5 21 -23 -6 -6 -11 -14 -11 -19 0 -4 55 -9 123 -10 l122 -3 3 -97 3
-98 -71 -105 c-39 -58 -77 -105 -85 -105 -9 0 -15 -10 -15 -25 0 -21 5 -25 30
-25 33 0 49 22 32 43 -14 17 90 177 116 177 13 0 38 -29 76 -85 31 -47 52 -85
46 -85 -5 0 -10 -12 -10 -26 0 -23 3 -25 32 -22 37 3 53 36 21 45 -10 2 -49
53 -88 111 l-70 107 3 98 3 98 121 -2 c83 -1 123 2 126 10 2 6 -1 11 -7 11
-16 0 -15 332 1 348 10 10 8 14 -9 18 -21 6 -20 9 25 75 26 37 51 68 56 69 5
0 46 -38 90 -83 96 -99 133 -116 202 -97 54 16 126 77 161 138 14 26 31 53 36
60 12 16 16 40 23 152 6 105 -10 143 -77 178 -46 25 -42 25 -218 6 -38 -4 -61
-3 -65 4 -4 6 -2 40 3 74 6 35 13 84 16 109 l6 46 177 -5 177 -5 33 28 c39 32
44 81 12 110 -18 17 -45 20 -213 24 l-191 6 -7 33 -7 32 132 74 c72 41 150 85
173 98 81 44 153 171 153 269 0 109 -71 229 -168 287 -41 24 -57 27 -133 27
l-86 0 -168 -83 -168 -83 -49 48 c-26 26 -48 51 -48 56 0 5 32 45 71 88 56 62
77 79 99 79 21 0 34 9 54 40 41 63 96 120 115 120 41 0 54 45 21 75 -15 14
-23 15 -34 6 -11 -9 -15 -8 -20 5 -5 13 -9 14 -22 4 -12 -10 -12 -15 -2 -21 7
-4 9 -11 4 -16 -4 -4 -12 0 -17 10 -13 22 -32 11 -24 -14 4 -11 2 -19 -4 -19
-6 0 -10 3 -10 8 3 19 -2 23 -15 12 -8 -6 -14 -17 -12 -23 1 -7 1 -9 -1 -4 -3
4 -12 7 -20 7 -10 0 -14 -6 -10 -20 3 -11 1 -20 -4 -20 -5 0 -9 5 -9 10 0 6
-7 10 -16 10 -11 0 -14 -6 -9 -20 4 -11 2 -20 -4 -20 -6 0 -11 5 -11 11 0 6
-6 9 -12 6 -7 -2 -12 -10 -10 -17 1 -7 -2 -18 -9 -26 -6 -7 -8 -18 -4 -23 3
-6 -32 -50 -78 -97 l-84 -87 -62 42 c-46 31 -60 46 -52 54 20 20 13 82 -14
111 -13 14 -28 26 -32 26 -4 0 -16 7 -26 15 -18 13 -17 17 22 73 72 106 149
156 213 137 20 -6 21 -5 8 7 -16 16 -258 168 -266 168 -3 0 4 -12 15 -26z
m-369 -394 c294 -42 580 -213 760 -452 79 -104 163 -277 197 -403 24 -92 26
-116 27 -290 0 -175 -2 -198 -27 -288 -31 -117 -108 -283 -174 -376 -154 -218
-399 -388 -659 -458 -89 -24 -117 -27 -279 -27 -182 -1 -240 7 -374 50 -219
72 -472 264 -596 454 -52 80 -135 247 -135 272 0 9 -7 35 -16 59 -61 170 -57
451 8 649 141 429 477 726 910 805 87 16 267 18 358 5z m375 -11 c40 -24 58
-50 49 -73 -8 -21 -22 -20 -82 7 l-51 22 20 33 c12 17 23 32 24 32 2 0 20 -10
40 -21z m-1005 -24 c10 -12 3 -18 -41 -39 -52 -26 -67 -27 -54 -6 5 8 65 52
81 59 1 1 7 -6 14 -14z m1899 -328 c45 -30 91 -113 91 -165 0 -62 -21 -111
-66 -152 -24 -22 -49 -40 -55 -40 -7 0 0 11 15 25 28 25 36 78 14 91 -8 5 -9
2 -5 -9 4 -11 1 -17 -8 -17 -11 0 -15 12 -15 45 0 25 -6 47 -13 52 -7 4 -21
21 -31 36 -23 37 -78 60 -120 51 -17 -3 -60 -22 -95 -42 -61 -34 -64 -34 -77
-17 -8 10 -14 22 -14 27 0 10 83 62 210 130 47 26 117 19 169 -15z m-2414 -34
c19 -9 35 -20 35 -24 0 -19 -18 -15 -50 12 -40 33 -36 36 15 12z m-52 -57 c31
-21 54 -42 51 -47 -9 -15 -24 -10 -24 7 0 22 -34 13 -38 -10 -3 -14 0 -17 12
-13 24 9 30 -12 10 -34 -18 -20 -18 -20 -34 1 -15 20 -18 20 -30 6 -13 -17 -8
-31 13 -31 19 0 16 -18 -7 -46 -31 -36 -53 -42 -67 -17 -10 18 -13 19 -26 5
-17 -17 -9 -39 11 -31 18 7 25 -6 17 -29 -6 -16 -14 -12 -66 27 -33 25 -66 46
-72 46 -31 0 -28 101 4 144 57 77 151 85 246 22z m2087 -66 c0 -14 -29 -38
-34 -28 -1 2 -8 11 -15 21 -12 15 -11 19 5 31 22 17 44 4 44 -24z m240 25 c35
-18 50 -43 50 -85 0 -38 -14 -66 -41 -80 -18 -10 -23 -5 -54 64 -19 41 -35 80
-35 86 0 8 27 25 48 29 2 1 16 -6 32 -14z m-70 -97 c17 -40 32 -77 33 -83 1
-9 -133 -89 -138 -83 -1 2 -12 24 -23 49 l-20 47 29 21 c15 12 33 21 39 21 13
0 13 12 0 46 -9 21 -7 29 7 40 31 23 40 16 73 -58z m-130 -9 c0 -16 -31 -22
-43 -10 -9 9 -9 14 2 20 16 10 41 4 41 -10z m295 -71 c-6 -15 -85 -62 -92 -55
-3 3 8 12 24 21 16 8 35 22 42 30 16 19 32 21 26 4z m-2815 -488 l0 -120 -31
0 c-48 0 -99 56 -99 108 0 23 4 52 10 66 11 30 65 66 98 66 22 0 22 -2 22
-120z m180 110 l55 0 1 -121 1 -121 -108 4 c-59 2 -110 6 -113 8 -2 3 -2 59 1
124 l6 118 51 -6 c28 -3 76 -6 106 -6z m2808 -33 c17 -11 15 -47 -5 -69 -14
-16 -34 -18 -172 -18 -86 0 -166 3 -178 6 -17 5 -22 15 -25 51 -2 24 -2 45 -1
46 5 6 370 -9 381 -16z m-237 -373 c12 -15 11 -18 -5 -28 -11 -6 -38 -27 -60
-47 l-41 -36 -42 18 c-53 22 -56 16 -5 -10 20 -11 32 -20 25 -21 -14 0 -55
-104 -51 -128 4 -23 -46 -28 -76 -8 l-23 15 28 58 c15 32 37 88 49 125 l21 67
77 4 c42 1 80 4 83 5 4 1 13 -5 20 -14z m-2769 -62 c-18 -17 -35 -47 -42 -73
-16 -63 -18 -67 -19 -37 -1 15 4 39 10 55 11 30 57 83 72 83 5 0 -4 -13 -21
-28z m2838 -26 c0 -5 -7 -3 -15 4 -8 7 -12 17 -9 22 7 10 24 -9 24 -26z
m-2515 -13 c3 -16 17 -51 31 -80 13 -28 24 -54 24 -57 0 -8 -56 -36 -71 -36
-7 0 -9 3 -6 6 6 7 -35 85 -61 116 -20 23 -9 46 30 63 44 19 45 19 53 -12z
m2401 7 c0 -12 -4 -16 -9 -11 -5 5 -6 14 -3 20 10 15 12 14 12 -9z m-38 -65
c8 -7 -26 -100 -37 -99 -6 1 -18 2 -27 3 -18 1 -16 29 5 84 9 23 15 27 34 21
12 -3 23 -8 25 -9z m-2424 -51 c30 -54 30 -54 12 -54 -8 0 -16 -6 -19 -12 -6
-18 -27 1 -52 47 -19 36 -19 37 0 51 28 20 31 19 59 -32z m2506 21 c9 -11 9
-22 -1 -52 -7 -21 -12 -44 -10 -52 2 -11 0 -11 -12 0 -11 10 -12 16 -3 21 6 4
7 8 2 8 -6 0 -5 5 2 12 14 14 16 48 2 48 -5 0 -15 -18 -21 -40 -12 -40 -22
-49 -34 -30 -3 6 -2 10 2 10 5 0 10 8 11 18 1 9 3 26 4 37 5 35 36 46 58 20z
m-2572 -113 c-5 -28 -43 -26 -62 2 -50 78 -47 72 -26 72 14 0 16 -3 8 -13 -7
-9 -7 -13 1 -13 6 0 16 -11 23 -25 6 -13 15 -22 21 -18 6 3 7 1 3 -5 -4 -7 -2
-12 3 -12 17 0 13 19 -10 56 -11 19 -17 39 -14 45 10 14 57 -66 53 -89z m211
21 l19 -38 -37 -41 c-20 -22 -45 -53 -57 -69 -18 -26 -23 -28 -37 -17 -13 11
-14 19 -6 40 6 15 8 46 4 68 -6 41 -6 42 42 66 26 14 49 26 50 27 2 0 11 -16
22 -36z m-130 -70 c0 -11 -3 -13 -6 -5 -2 6 -9 10 -14 6 -5 -3 -9 0 -9 5 0 6
7 11 15 11 8 0 15 -8 14 -17z m-49 -93 c0 -5 -7 -7 -15 -4 -8 4 -12 10 -9 15
6 11 24 2 24 -11z m2600 5 c0 -3 -18 -16 -39 -30 -41 -28 -104 -35 -136 -17
-13 7 -4 8 31 5 39 -4 58 0 94 20 52 29 50 29 50 22z"/>
<path d="M1996 3211 c-4 -6 -1 -11 8 -11 26 0 27 -16 6 -137 -26 -146 -28
-153 -45 -153 -8 0 -17 -5 -21 -11 -4 -8 29 -10 113 -7 113 3 122 5 156 30 58
45 62 104 9 132 -15 9 -22 15 -16 16 24 0 64 49 64 78 0 54 -28 66 -155 71
-75 2 -115 -1 -119 -8z m168 -37 c33 -32 12 -87 -38 -100 l-28 -7 7 54 c4 30
9 57 12 62 7 12 31 8 47 -9z m-16 -147 c16 -12 15 -67 -1 -89 -16 -20 -63 -33
-71 -19 -6 8 6 83 19 118 4 13 29 8 53 -10z"/>
<path d="M2584 3195 c-16 -24 -16 -27 0 -43 15 -15 18 -15 44 0 37 23 37 62 0
66 -20 2 -31 -4 -44 -23z"/>
<path d="M2343 3099 c-57 -37 -54 -94 4 -73 22 7 28 16 28 39 1 33 16 43 34
21 21 -25 3 -54 -51 -83 -58 -31 -92 -71 -83 -95 10 -25 33 -29 72 -13 33 14
38 14 54 -1 16 -14 23 -15 48 -4 35 14 70 49 37 37 -17 -7 -18 -4 -12 25 16
76 19 138 6 153 -19 22 -98 19 -137 -6z m60 -121 c-7 -39 -17 -53 -32 -44 -16
10 -13 37 6 58 24 27 33 22 26 -14z"/>
<path d="M2547 3113 c-4 -3 -2 -12 4 -19 15 -18 -16 -175 -38 -191 -14 -11 -6
-13 50 -13 37 0 67 4 67 9 0 5 -5 11 -11 13 -8 3 -6 29 5 89 23 122 23 119
-27 119 -24 0 -47 -3 -50 -7z"/>
<path d="M2729 3097 c-93 -62 -90 -217 5 -217 35 0 116 50 116 72 0 6 -7 4
-18 -5 -40 -37 -92 -13 -92 42 0 19 6 21 60 21 l60 0 0 38 c0 71 -64 94 -131
49z m69 -35 c3 -30 1 -32 -28 -32 -28 0 -31 2 -24 23 17 55 47 60 52 9z"/>
<path d="M2907 3113 c-4 -3 -3 -11 2 -17 12 -15 -21 -188 -37 -194 -31 -10 -6
-17 53 -14 59 3 83 14 53 24 -10 4 -10 18 -1 67 14 72 29 97 49 80 17 -14 51
-3 64 22 23 41 -22 53 -70 19 l-28 -20 5 20 c5 18 0 20 -39 20 -25 0 -48 -3
-51 -7z"/>
<path d="M1492 2741 c-10 -6 -9 -10 7 -14 26 -6 26 -14 1 -151 -11 -60 -20
-113 -20 -118 0 -5 -11 -14 -25 -20 -14 -6 -25 -14 -25 -17 0 -3 53 -4 118 -1
94 4 124 9 147 24 42 27 54 46 55 84 0 26 -6 36 -29 50 l-29 16 29 18 c43 26
55 65 31 97 -10 14 -30 29 -43 32 -35 10 -202 10 -217 0z m159 -31 c42 -23 9
-110 -42 -110 -17 0 -20 5 -16 23 3 12 9 39 12 60 8 39 15 43 46 27z m-5 -165
c21 -32 8 -74 -29 -95 -39 -22 -50 -5 -42 64 7 50 10 56 31 56 14 0 30 -10 40
-25z"/>
<path d="M3492 2743 c-10 -4 -10 -7 1 -17 10 -7 13 -23 10 -48 -5 -35 -6 -36
-38 -31 -24 4 -43 -1 -67 -15 -40 -25 -55 -48 -67 -104 -19 -85 36 -142 101
-105 25 14 28 14 28 1 0 -10 6 -14 18 -10 9 2 32 7 50 11 31 6 42 20 22 27 -6
2 0 57 15 142 14 77 25 144 25 148 0 9 -77 10 -98 1z m-14 -139 c10 -19 -8
-128 -25 -145 -23 -23 -43 -2 -43 46 0 83 42 145 68 99z"/>
<path d="M1809 2643 c-1 -5 -2 -26 -3 -48 -1 -22 -6 -66 -11 -97 -12 -84 17
-108 85 -73 17 9 30 11 30 5 0 -5 22 -10 50 -10 45 0 67 13 39 22 -9 3 -7 28
5 93 22 121 23 115 -27 115 -48 0 -62 -7 -47 -25 7 -8 6 -32 0 -71 -13 -75
-26 -104 -45 -104 -19 0 -19 24 -1 117 7 40 11 75 8 78 -8 8 -82 6 -83 -2z"/>
<path d="M2113 2630 c-42 -25 -58 -54 -37 -70 25 -21 68 4 61 36 -5 28 4 37
28 28 10 -4 15 -16 13 -32 -2 -20 -17 -34 -61 -60 -59 -34 -85 -68 -74 -97 10
-25 33 -28 71 -10 33 16 37 16 52 1 10 -11 24 -14 38 -10 26 7 69 47 46 42 -8
-2 -14 2 -14 7 1 6 7 41 13 79 11 61 10 70 -5 87 -23 25 -89 25 -131 -1z m50
-131 c-10 -37 -30 -49 -39 -24 -4 10 2 26 16 40 29 31 34 27 23 -16z"/>
<path d="M2322 2643 c-9 -3 -10 -9 -3 -17 16 -19 -14 -177 -36 -193 -14 -11
19 -13 174 -13 106 0 194 4 197 9 4 5 1 11 -5 13 -7 2 -6 29 2 90 11 71 10 89
0 102 -17 21 -60 20 -89 0 -21 -15 -25 -15 -41 0 -22 20 -60 20 -89 0 -20 -14
-22 -14 -22 0 0 12 -10 16 -37 15 -21 0 -44 -3 -51 -6z m127 -70 c-1 -52 -22
-136 -34 -140 -5 -1 -16 1 -24 6 -11 7 -12 20 -1 77 13 73 24 94 46 94 10 0
14 -12 13 -37z m130 5 c-1 -51 -23 -141 -34 -145 -5 -1 -16 1 -24 6 -11 7 -11
20 -2 77 13 72 24 94 47 94 9 0 14 -11 13 -32z"/>
<path d="M2895 2640 c-32 -13 -68 -57 -62 -74 14 -36 80 -8 75 31 -3 28 9 38
31 24 23 -15 5 -59 -32 -77 -66 -33 -97 -64 -97 -94 0 -37 28 -47 70 -25 30
15 33 15 51 -1 16 -14 23 -15 48 -4 33 13 68 46 37 34 -9 -3 -16 -5 -16 -3 0
2 6 38 14 79 13 66 13 78 0 98 -11 17 -23 22 -57 21 -23 0 -51 -4 -62 -9z m36
-140 c-7 -37 -33 -48 -39 -18 -3 15 35 65 43 56 2 -2 0 -19 -4 -38z"/>
<path d="M3086 2641 c-4 -5 -3 -16 0 -25 10 -26 -17 -177 -32 -183 -31 -12
-11 -18 46 -15 58 4 60 5 54 28 -9 35 16 154 33 161 8 3 18 2 23 -3 10 -11
-15 -153 -30 -168 -18 -18 -11 -21 50 -18 54 3 77 15 50 24 -7 2 -6 30 3 83 8
44 11 89 7 100 -9 24 -64 33 -87 13 -13 -10 -17 -10 -20 0 -5 14 -89 17 -97 3z"/>
<path d="M2322 2214 c-23 -16 -29 -48 -11 -59 33 -21 93 31 68 61 -15 18 -29
18 -57 -2z"/>
<path d="M1775 2210 c-3 -5 1 -10 9 -10 26 0 27 -16 6 -137 -27 -150 -26 -149
-53 -159 -15 -5 2 -9 57 -11 47 -2 83 0 90 7 7 7 5 10 -7 10 -19 0 -22 26 -10
93 5 31 9 38 27 35 14 -2 25 -15 32 -37 6 -20 14 -29 18 -23 8 13 36 155 32
160 -2 1 -15 -13 -30 -33 -15 -20 -36 -35 -47 -35 -17 0 -20 5 -15 30 3 17 9
44 12 60 5 27 9 30 43 30 45 0 71 -17 74 -48 1 -22 12 -29 21 -14 3 5 8 28 12
50 l7 42 -136 0 c-80 0 -138 -4 -142 -10z"/>
<path d="M3025 2210 c-3 -5 1 -10 9 -10 16 0 20 -20 10 -55 -4 -16 -13 -20
-42 -20 -70 0 -132 -73 -132 -156 0 -66 48 -101 101 -74 16 9 29 11 29 5 0
-13 25 -13 74 1 29 8 35 13 25 19 -12 8 -10 30 9 142 12 73 22 139 22 146 0
15 -96 17 -105 2z m-1 -138 c3 -10 0 -44 -7 -76 -13 -64 -39 -94 -58 -66 -13
20 -2 118 16 147 16 24 41 22 49 -5z"/>
<path d="M2192 2110 c-39 -24 -43 -25 -36 -5 5 12 -3 15 -39 15 -43 0 -68 -12
-48 -24 12 -8 -18 -168 -37 -188 -14 -17 -11 -18 46 -18 33 0 64 5 67 10 3 6
1 10 -6 10 -8 0 -10 15 -5 55 10 88 34 123 63 94 8 -8 17 -7 32 2 27 17 34 38
20 55 -15 18 -18 18 -57 -6z"/>
<path d="M2470 2111 c-66 -34 -104 -123 -78 -179 16 -33 54 -52 89 -45 29 5
104 62 95 71 -3 3 -15 -3 -25 -12 -27 -24 -63 -17 -79 17 -18 37 -9 47 43 47
61 0 75 7 75 42 0 33 -39 78 -67 78 -10 0 -34 -8 -53 -19z m50 -46 c0 -31 -3
-35 -25 -35 -27 0 -32 18 -15 51 18 32 40 23 40 -16z"/>
<path d="M2750 2113 c-17 -12 -25 -13 -28 -5 -4 14 -88 16 -96 3 -4 -5 -1 -11
5 -13 17 -6 -18 -178 -39 -195 -15 -11 -8 -13 43 -11 45 2 59 6 57 17 -2 8 2
47 9 87 12 75 30 107 50 87 15 -15 -9 -151 -29 -175 -14 -17 -11 -18 41 -18
52 0 79 11 59 24 -5 3 -2 44 6 91 13 80 13 87 -4 106 -21 23 -42 24 -74 2z"/>
<path d="M3185 2099 c-47 -42 -46 -72 5 -119 39 -36 52 -70 27 -70 -17 0 -42
20 -55 45 -10 19 -11 19 -21 -8 -15 -38 -14 -60 2 -54 6 2 22 0 35 -4 29 -11
84 11 106 42 26 38 20 68 -24 108 -41 37 -51 61 -27 61 17 0 47 -32 47 -50 0
-10 3 -10 15 0 8 7 15 27 15 44 0 30 -2 31 -45 33 -38 2 -51 -3 -80 -28z"/>
<path d="M2276 2095 c8 -34 -15 -166 -34 -187 -14 -17 -12 -18 36 -18 60 0 90
9 71 21 -10 6 -10 24 0 91 6 46 14 91 17 101 5 15 -2 17 -46 17 -49 0 -50 -1
-44 -25z"/>
<path d="M1371 3047 c-13 -16 -5 -27 20 -27 12 0 16 6 12 20 -6 23 -16 25 -32
7z"/>
<path d="M3800 2006 c0 -2 7 -7 16 -10 8 -3 12 -2 9 4 -6 10 -25 14 -25 6z"/>
<path d="M1818 1123 c-31 -35 -128 -193 -119 -193 5 0 35 38 65 85 38 59 62
85 75 85 14 0 34 -23 66 -74 42 -68 75 -108 75 -92 0 11 -132 206 -139 206 -5
0 -15 -8 -23 -17z"/>
<path d="M2274 985 c-9 -25 -25 -50 -36 -56 -36 -19 -16 -49 33 -49 14 0 19 7
19 25 0 14 -5 25 -11 25 -6 0 0 20 14 44 23 42 25 56 6 56 -4 0 -15 -20 -25
-45z"/>
<path d="M2717 1024 c-3 -4 2 -23 12 -43 12 -22 17 -48 14 -68 -5 -31 -4 -33
26 -33 26 0 31 4 31 25 0 14 -4 25 -10 25 -5 0 -21 23 -35 50 -27 52 -28 54
-38 44z"/>
<path d="M1660 899 c0 -17 5 -20 32 -17 22 2 34 9 36 21 3 14 -4 17 -32 17
-30 0 -36 -4 -36 -21z"/>
<path d="M1950 900 c0 -16 7 -20 35 -20 28 0 35 4 35 20 0 16 -7 20 -35 20
-28 0 -35 -4 -35 -20z"/>
</g>
</svg>
