<?xml version="1.0" encoding="UTF-8"?>
<svg id="Ebene_1" data-name="Ebene 1" xmlns="http://www.w3.org/2000/svg" viewBox="0 0 206.4 116.6">
  <defs>
    <style>
      .cls-1 {
        fill: #fff;
      }
    </style>
  </defs>
  <path class="cls-1" d="m13.2,27.4l-5.4-9.8h-1.5v9.8H0V1.4h10.6c2,0,3.8.4,5.2,1.1,1.4.7,2.5,1.7,3.2,2.9s1.1,2.6,1.1,4.2c0,1.7-.5,3.3-1.5,4.6-1,1.4-2.4,2.3-4.3,2.9l6,10.3s-7.1,0-7.1,0Zm-6.9-14.3h3.9c1.2,0,2-.3,2.6-.9s.9-1.4.9-2.4-.3-1.8-.9-2.3c-.6-.6-1.4-.9-2.6-.9h-3.9v6.5Z"/>
  <path class="cls-1" d="m28.1,26.4c-1.6-.9-2.9-2.1-3.8-3.7s-1.4-3.5-1.4-5.6.5-4,1.4-5.6,2.2-2.9,3.8-3.7c1.6-.9,3.5-1.3,5.5-1.3s3.8.4,5.5,1.3c1.6.9,2.9,2.1,3.8,3.7.9,1.6,1.4,3.5,1.4,5.6s-.5,4-1.4,5.6-2.2,2.9-3.9,3.7c-1.6.9-3.5,1.3-5.5,1.3-2,0-3.8-.5-5.4-1.3Zm8.5-5.5c.9-.9,1.3-2.2,1.3-3.8,0-1.7-.4-2.9-1.2-3.8-.8-.9-1.8-1.3-3.1-1.3-1.2,0-2.3.4-3.1,1.3s-1.2,2.2-1.2,3.8c0,1.7.4,2.9,1.2,3.8.8.9,1.8,1.3,3,1.3,1.2,0,2.3-.4,3.1-1.3Z"/>
  <path class="cls-1" d="m47.7,11.4c.9-1.6,2.1-2.8,3.7-3.7,1.6-.9,3.4-1.3,5.4-1.3,2.6,0,4.8.7,6.5,2,1.7,1.4,2.9,3.3,3.4,5.7h-6.7c-.6-1.6-1.7-2.4-3.3-2.4-1.2,0-2.1.5-2.8,1.4s-1,2.2-1,3.9.3,3,1,3.9,1.6,1.4,2.8,1.4c1.6,0,2.7-.8,3.3-2.4h6.7c-.5,2.4-1.7,4.3-3.4,5.7-1.8,1.4-3.9,2.1-6.5,2.1-2,0-3.8-.4-5.4-1.3-1.6-.9-2.8-2.1-3.7-3.7s-1.3-3.5-1.3-5.6c0-2.2.5-4.1,1.3-5.7Z"/>
  <path class="cls-1" d="m82.7,27.4l-6.3-8.7v8.7h-6.3V0h6.3v15.1l6.3-8.4h7.8l-8.6,10.4,8.7,10.3s-7.9,0-7.9,0Z"/>
  <path class="cls-1" d="m32.5,53.2c1.5,1.6,2.3,3.7,2.3,6.5v12.1h-6.3v-11.2c0-1.3-.4-2.4-1.1-3.1s-1.7-1.1-2.9-1.1-2.2.4-2.9,1.1c-.7.7-1.1,1.8-1.1,3.1v11.2h-6.3v-11.2c0-1.3-.4-2.4-1.1-3.1-.7-.7-1.7-1.1-2.9-1.1s-2.2.4-2.9,1.1c-.7.7-1.1,1.8-1.1,3.1v11.2H0v-20.7h6.3v2.6c.6-.9,1.5-1.5,2.5-2.1,1-.5,2.2-.8,3.5-.8,1.6,0,2.9.3,4.2,1s2.2,1.6,2.9,2.8c.7-1.1,1.7-2.1,2.9-2.8,1.2-.7,2.6-1.1,4-1.1,2.6.2,4.7,1,6.2,2.5Z"/>
  <path class="cls-1" d="m58.5,63h-14.3c.1,1.3.5,2.3,1.2,2.9.7.7,1.6,1,2.7,1,1.6,0,2.7-.7,3.3-2h6.7c-.3,1.4-1,2.6-1.9,3.7s-2,1.9-3.4,2.6c-1.4.6-2.9.9-4.6.9-2,0-3.8-.4-5.4-1.3s-2.8-2.1-3.7-3.7-1.3-3.5-1.3-5.6.4-4,1.3-5.6c.9-1.6,2.1-2.8,3.7-3.7,1.6-.9,3.4-1.3,5.4-1.3s3.8.4,5.3,1.3c1.6.8,2.8,2,3.6,3.6.9,1.6,1.3,3.4,1.3,5.4.2.5.2,1.1.1,1.8Zm-6.3-3.5c0-1.1-.4-1.9-1.1-2.6-.7-.6-1.7-1-2.8-1s-2,.3-2.7.9c-.7.6-1.2,1.5-1.4,2.6h8v.1Z"/>
  <path class="cls-1" d="m81.3,63h-14.3c.1,1.3.5,2.3,1.2,2.9.7.7,1.6,1,2.7,1,1.6,0,2.7-.7,3.3-2h6.8c-.3,1.4-1,2.6-1.9,3.7s-2,1.9-3.4,2.6c-1.4.6-2.9.9-4.6.9-2,0-3.8-.4-5.4-1.3s-2.8-2.1-3.7-3.7-1.3-3.5-1.3-5.6.4-4,1.3-5.6c.9-1.6,2.1-2.8,3.7-3.7s3.4-1.3,5.4-1.3,3.8.4,5.3,1.3c1.6.8,2.8,2,3.6,3.6.9,1.6,1.3,3.4,1.3,5.4.1.5.1,1.1,0,1.8Zm-6.3-3.5c0-1.1-.4-1.9-1.1-2.6-.7-.6-1.7-1-2.8-1s-2,.3-2.7.9c-.7.6-1.2,1.5-1.4,2.6h8v.1Z"/>
  <path class="cls-1" d="m96.3,66.4v5.4h-3.2c-2.3,0-4.1-.6-5.4-1.7s-1.9-3-1.9-5.5v-8.2h-2.5v-5.3h2.5v-5h6.3v5h4.1v5.3h-4.1v8.3c0,.6.1,1.1.4,1.3.3.3.8.4,1.5.4,0,0,2.3,0,2.3,0Z"/>
  <path class="cls-1" d="m103.4,71.2c-1.4-.6-2.5-1.5-3.3-2.5-.8-1.1-1.3-2.3-1.4-3.6h6.3c.1.7.4,1.3,1,1.7.6.4,1.3.7,2.2.7.8,0,1.4-.2,1.8-.5s.6-.7.6-1.2c0-.6-.3-1-.9-1.3s-1.6-.6-3-.9c-1.5-.3-2.7-.7-3.7-1.1-1-.4-1.8-1-2.6-1.8-.7-.8-1.1-1.9-1.1-3.3,0-1.2.3-2.3,1-3.2.7-1,1.6-1.7,2.9-2.3s2.8-.9,4.5-.9c2.6,0,4.6.6,6.1,1.9,1.5,1.3,2.3,3,2.6,5.1h-5.8c-.1-.7-.4-1.3-.9-1.7s-1.2-.6-2.1-.6c-.7,0-1.3.1-1.7.4-.4.3-.6.7-.6,1.2,0,.6.3,1,.9,1.3s1.6.6,2.9.9c1.5.4,2.8.8,3.7,1.2,1,.4,1.8,1,2.5,1.9s1.1,2,1.1,3.4c0,1.2-.3,2.3-1,3.2-.7,1-1.7,1.7-2.9,2.2-1.3.5-2.7.8-4.4.8-1.7-.1-3.3-.4-4.7-1Z"/>
  <path class="cls-1" d="m19.4,105.1c.9,1.2,1.4,2.5,1.4,4,0,2.2-.8,3.9-2.3,5.2-1.5,1.3-3.6,1.9-6.3,1.9H0v-26h11.7c2.6,0,4.7.6,6.2,1.8,1.5,1.2,2.2,2.8,2.2,4.9,0,1.5-.4,2.8-1.2,3.8-.8,1-1.9,1.7-3.2,2.1,1.5.4,2.7,1.1,3.7,2.3Zm-13.1-4.4h4.1c1,0,1.8-.2,2.4-.7.6-.5.8-1.1.8-2s-.3-1.6-.8-2c-.6-.5-1.4-.7-2.4-.7h-4.1v5.4Zm7.1,9.7c.6-.5.9-1.2.9-2.1s-.3-1.6-.9-2.1c-.6-.5-1.4-.8-2.5-.8h-4.6v5.7h4.7c1,0,1.9-.3,2.4-.7Z"/>
  <path class="cls-1" d="m30.7,88.8v27.4h-6.3v-27.4h6.3Z"/>
  <path class="cls-1" d="m35.2,100.2c.8-1.6,1.9-2.8,3.3-3.7,1.4-.9,2.9-1.3,4.6-1.3,1.5,0,2.7.3,3.8.9s1.9,1.4,2.5,2.3v-2.9h6.3v20.6h-6.3v-2.9c-.6,1-1.5,1.7-2.6,2.3-1.1.6-2.4.9-3.8.9-1.7,0-3.2-.4-4.6-1.3-1.4-.9-2.5-2.1-3.3-3.7s-1.2-3.5-1.2-5.6c.1-2.1.5-4,1.3-5.6Zm13,1.9c-.9-.9-1.9-1.4-3.2-1.4s-2.3.5-3.2,1.4-1.3,2.1-1.3,3.7.4,2.8,1.3,3.8c.9.9,1.9,1.4,3.2,1.4s2.3-.5,3.2-1.4,1.3-2.2,1.3-3.7c0-1.6-.4-2.9-1.3-3.8Z"/>
  <path class="cls-1" d="m64,115.6c-1.4-.6-2.5-1.5-3.3-2.5-.8-1.1-1.3-2.3-1.4-3.6h6.3c.1.7.4,1.3,1,1.7.6.4,1.3.7,2.2.7.8,0,1.4-.2,1.8-.5s.6-.7.6-1.2c0-.6-.3-1-.9-1.3s-1.6-.6-3-.9c-1.5-.3-2.7-.7-3.7-1.1-1-.4-1.8-1-2.6-1.8s-1-2.1-1-3.5c0-1.2.3-2.3,1-3.2.7-1,1.6-1.7,2.9-2.3s2.8-.9,4.5-.9c2.6,0,4.6.6,6.1,1.9s2.3,3,2.6,5.1h-5.8c-.1-.7-.4-1.3-.9-1.7-.5-.4-1.2-.6-2.1-.6-.7,0-1.3.1-1.7.4-.4.3-.6.7-.6,1.2,0,.6.3,1,.9,1.3s1.6.6,2.9.9c1.5.4,2.8.8,3.7,1.2,1,.4,1.8,1,2.5,1.9s1.1,2,1.1,3.4c0,1.2-.3,2.3-1,3.2-.7,1-1.7,1.7-2.9,2.2-1.3.5-2.7.8-4.4.8-1.8.1-3.4-.2-4.8-.8Z"/>
  <path class="cls-1" d="m113.5,97.6c1.5,1.6,2.3,3.7,2.3,6.5v12.1h-6.3v-11.2c0-1.3-.4-2.4-1.1-3.1s-1.7-1.1-2.9-1.1-2.2.4-2.9,1.1c-.7.7-1.1,1.8-1.1,3.1v11.2h-6.3v-11.2c0-1.3-.4-2.4-1.1-3.1s-1.7-1.1-2.9-1.1-2.2.4-2.9,1.1c-.7.7-1.1,1.8-1.1,3.1v11.2h-6.3v-20.7h6.3v2.6c.6-.9,1.5-1.5,2.5-2.1,1-.5,2.2-.8,3.5-.8,1.6,0,2.9.3,4.2,1,1.2.7,2.2,1.6,2.9,2.8.7-1.1,1.7-2.1,2.9-2.8,1.2-.7,2.6-1.1,4-1.1,2.8.2,4.8,1,6.3,2.5Z"/>
  <path class="cls-1" d="m140.6,95.5v20.6h-6.3v-2.8c-.6.9-1.5,1.6-2.6,2.2s-2.3.8-3.6.8c-1.6,0-3-.4-4.2-1.1s-2.1-1.7-2.8-3.1-1-2.9-1-4.7v-11.9h6.3v11.2c0,1.4.4,2.5,1.1,3.2.7.7,1.7,1.1,2.9,1.1s2.2-.4,2.9-1.1c.7-.8,1.1-1.8,1.1-3.2v-11.2h6.2Z"/>
  <path class="cls-1" d="m148.8,115.6c-1.4-.6-2.5-1.5-3.3-2.5-.8-1.1-1.3-2.3-1.4-3.6h6.3c.1.7.4,1.3,1,1.7.6.4,1.3.7,2.2.7.8,0,1.4-.2,1.8-.5s.6-.7.6-1.2c0-.6-.3-1-.9-1.3-.6-.3-1.6-.6-3-.9-1.5-.3-2.7-.7-3.7-1.1s-1.8-1-2.6-1.8c-.7-.8-1.1-1.9-1.1-3.3,0-1.2.3-2.3,1-3.2s1.6-1.7,2.9-2.3c1.3-.6,2.8-.9,4.5-.9,2.6,0,4.6.6,6.1,1.9s2.3,3,2.6,5.1h-5.8c-.1-.7-.4-1.3-.9-1.7-.5-.4-1.2-.6-2.1-.6-.7,0-1.3.1-1.7.4s-.6.7-.6,1.2c0,.6.3,1,.9,1.3s1.6.6,2.9.9c1.5.4,2.8.8,3.7,1.2,1,.4,1.8,1,2.5,1.9s1.1,2,1.1,3.4c0,1.2-.3,2.3-1,3.2-.7,1-1.7,1.7-2.9,2.2-1.3.5-2.7.8-4.4.8-1.7-.1-3.3-.4-4.7-1Z"/>
  <path class="cls-1" d="m166.3,92.4c-.7-.7-1.1-1.5-1.1-2.4,0-1,.4-1.8,1.1-2.5s1.6-1,2.7-1,2,.3,2.7,1,1.1,1.5,1.1,2.5-.4,1.8-1.1,2.4c-.7.7-1.6,1-2.7,1s-2-.3-2.7-1Zm5.9,3.1v20.6h-6.3v-20.6h6.3Z"/>
  <path class="cls-1" d="m189.4,116.2l-6.3-8.7v8.7h-6.3v-27.4h6.3v15.1l6.3-8.4h7.8l-8.6,10.4,8.7,10.3s-7.9,0-7.9,0Z"/>
  <path class="cls-1" d="m199.9,115.5c-.7-.7-1.1-1.5-1.1-2.4,0-1,.4-1.8,1.1-2.5s1.6-1,2.7-1,2,.3,2.7,1,1.1,1.5,1.1,2.5-.4,1.8-1.1,2.4c-.7.7-1.6,1-2.7,1s-2-.4-2.7-1Z"/>
</svg>